<?xml version="1.0" encoding="UTF-8" standalone="no"?>
<!-- viewbox: width +  -->
<svg width="900px" height="426px" viewBox="0 0 900 426" version="1.1" xmlns="http://www.w3.org/2000/svg" xmlns:xlink="http://www.w3.org/1999/xlink">
    <defs>
        <filter x="-10%" y="-20%" width="120%" height="150%" filterUnits="objectBoundingBox" id="filter-1">
            <feOffset dx="0" dy="25" in="SourceAlpha" result="shadowOffsetOuter1"></feOffset>
            <feGaussianBlur stdDeviation="25" in="shadowOffsetOuter1" result="shadowBlurOuter1"></feGaussianBlur>
            <feColorMatrix values="0 0 0 0 0   0 0 0 0 0   0 0 0 0 0  0 0 0 0.5 0" type="matrix" in="shadowBlurOuter1" result="shadowMatrixOuter1"></feColorMatrix>
            <feMerge>
                <feMergeNode in="shadowMatrixOuter1"></feMergeNode>
                <feMergeNode in="SourceGraphic"></feMergeNode>
            </feMerge>
        </filter>
        <linearGradient x1="50%" y1="0%" x2="50%" y2="100%" id="linearGradient-2">
            <stop stop-color="#FFFFFF" offset="0%"></stop>
            <stop stop-color="#F5F4F5" offset="5%"></stop>
            <stop stop-color="#D6D3D6" offset="100%"></stop>
        </linearGradient>
        <circle id="path-3" cx="91" cy="11" r="11"></circle>
        <circle id="path-4" cx="51" cy="11" r="11"></circle>
        <circle id="path-5" cx="11" cy="11" r="11"></circle>
    </defs>
    <g filter="url(#filter-1)" transform="translate(50, 25)" fill="none">
        <path d="M10,0 C5,0 0,5 0,10 L0,42 L800,42 L800,10 C800,5 795,0 789,0 L10,0 Z" id="Toolbar-BG" fill-opacity="0.9" fill="url(#linearGradient-2)"/>

        <text x="400" y="29" font-family="HelveticaNeue, Helvetica Neue" font-size="26" letter-spacing="0.4" fill="#585858" text-anchor="middle">
            Window Title
        </text>
        <g transform="translate(17, 11)">
            <g>
                <use fill="#15CC35" fill-rule="evenodd" xlink:href="#path-3"></use>
                <circle stroke="#17B230" stroke-width="1" cx="91" cy="11" r="11.5"></circle>
            </g>
            <g>
                <use fill="#FFBE05" fill-rule="evenodd" xlink:href="#path-4"></use>
                <circle stroke="#E2A100" stroke-width="1" cx="51" cy="11" r="11.5"></circle>
            </g>
            <g>
                <use fill="#FF5F52" fill-rule="evenodd" xlink:href="#path-5"></use>
                <circle stroke="#E33E32" stroke-width="1" cx="11" cy="11" r="11.5"></circle>
            </g>
        </g>
        <path d="M1,43 L799,43" id="Line" stroke="#B5B4B5" stroke-width="2" stroke-linecap="square"></path>
        <!-- <path d="M0,45 L800,45 L800,315 C800,320 795,325 790,325 L10,325 C5,325 0,320 0,315 L0,45 Z" id="Rectangle" fill="#FFFFFF"></path> -->
    </g>
</svg>